<svg id="emoji" viewBox="0 0 72 72" xmlns="http://www.w3.org/2000/svg">
  <g id="color">
    <path fill="#92d3f5" d="m22.494 65-.218-2.813a23.426 23.426 0 0 1-4.336-3.518L21.917 48.6c1.023-2.591 1.634-3.561 3.023-2.591 3.007 2.099 6.346 2.922 7.625 3.85 4.328 3.693 12.34 4.625 19.341 1.46 3 0 9.568 3.822 9.568 9.09v4.546Z"/>
  </g>
  <g id="skin">
    <path fill="#fcea2b" d="M31.403 33.985c0 9 4.936 14 11 14 5.936 0 11.063-5 11.063-14a12.137 12.137 0 0 0-1-5c-3-3-7-8-7-8-4 3-7 6-13 7 0 0-1.063 1-1.063 6Z"/>
    <path fill="#fcea2b" d="M18.63 55.99c-2.624-3.249-5.712-4.458-6.212-6.458-.543-2.169-3.193-15.63-2.192-19.88.4-2.535.484-5.111.25-7.666-.06-.998.844-4.688.844-6.688-.049-1.323.077-2.647.375-3.938 1.188-1.725 2.872-.732 2.898.498l1.039-4.342c.187-1.281 3.698-2.219 3.188 1.25l.45-2.481c.681-1.425 2.381-1.16 2.758-.692.622.809.303 1.542.256 2.536 0 0 2.254-.019 1.671 3.002-.19.982-1.633 10.23-1.633 10.23.458-.458 1.541-4.699 3.124-4.699 2.119 0 1.904 1.65 1.904 1.65s-.603 1.433-1.281 2.673c-1.012 1.851-2.281 5.5-3.281 6.5a44.05 44.05 0 0 1-5.222 3l2.91 12.25s.167.538 2.496 2.256"/>
  </g>
  <g id="hair">
    <path fill="#f1b31c" d="M52.583 29.077c-2.661-.856-7.367-7.937-7.367-7.937-2.661 3.232-12.737 6.986-12.737 6.986-2.994 2.994-.045 13.859-.045 13.859-4 0-4-6-4-13s4-14 14-14 14 7 14 14 0 13-4 13c1.325-2.253.149-12.908.149-12.908Z"/>
  </g>
  <g id="line">
    <path fill="none" stroke="#000" stroke-linecap="round" stroke-linejoin="round" stroke-width="2" d="M32.466 41.985c-4 0-4-6-4-13s4-14 14-14 14 7 14 14 0 13-4 13"/>
    <path d="M48.339 32.985a2 2 0 1 1-4 0 2 2 0 0 1 4 0M40.339 32.985a2 2 0 1 1-4 0 2 2 0 0 1 4 0"/>
    <path fill="none" stroke="#000" stroke-linejoin="round" stroke-width="2" d="M31.403 33.985c0 9 4.936 14 11 14 5.936 0 11.063-5 11.063-14a12.137 12.137 0 0 0-1-5c-3-3-7-8-7-8-4 3-7 6-13 7 0 0-1.063 1-1.063 6Z"/>
    <path fill="none" stroke="#000" stroke-linecap="round" stroke-linejoin="round" stroke-width="2" d="M39.466 40.985a6.554 6.554 0 0 0 6 0M22.474 63.99a2.981 2.981 0 0 0-.842-2.698C18.474 58.846 17.474 57.99 17.474 57.99l5-12M20.183 6.782c-.709 3.924-1.125 6.631-1.709 11.208M21.542 21.365c.293-2.162 1.098-6.751 1.557-11.375M61.474 63.99s.091-2.25.091-3c0-7-9.091-10-9.091-10-7 2-11 2-16 1-3.275-.655-10.027-4.59-15-8 0 0-3.909-9.5-3.909-13.5 0-.583 5.552-1.994 7-6.5.781-2.431 1.811-5.674 1.811-5.674M14.474 17.99c.86-5.076 1.564-8.621 2-10M18.628 55.221c-5-4-6.588-5.12-7.154-8.231-2-11-1-14.581-1-18 0-1 .016 0 .016-6 0-.812.508-4.393.984-7a25.278 25.278 0 0 1 1-4"/>
  </g>
</svg>
