<svg id="emoji" viewBox="0 0 72 72" xmlns="http://www.w3.org/2000/svg">
  <g id="color"/>
  <g id="skin">
    <g id="color-2">
      <path fill="#fcea2b" d="M42.533 22.288a4.3 4.3 0 0 0-4.209-4.131h-6a4.3 4.3 0 0 0-4.209 4.131l-.792 19.439a1.017 1.017 0 0 1-.121.437l2.934-2.094-.714 22.133a1.232 1.232 0 0 0 .25.879.241.241 0 0 0 .152.09c.214 0 .656-.427.735-1.126l2.899-22.503a4.925 4.925 0 0 1 .403-1.192l.725-.805h1.625l.984.623a4.926 4.926 0 0 1 .352 1.341l2.542 22.535c.079.698.522 1.125.736 1.125a.242.242 0 0 0 .152-.09c.192-.248.489-.585.457-.9l-.932-22.11L44 42.5"/>
      <circle cx="35.404" cy="10.651" r="2.969" fill="#fcea2b"/>
    </g>
  </g>
  <g id="line">
    <circle cx="35.404" cy="10.651" r="2.969" fill="none" stroke="#000" stroke-miterlimit="10" stroke-width="2"/>
    <path fill="none" stroke="#000" stroke-linecap="round" stroke-linejoin="round" stroke-width="2" d="m40.37 23.589 1.9 38c.055 1.1-.575 2-1.4 2a2.076 2.076 0 0 1-1.729-1.987L36.6 39.571c-.129-1.093-.679-1.987-1.229-1.987s-1.103.894-1.229 1.987l-2.539 22.031a2.076 2.076 0 0 1-1.729 1.987c-.825 0-1.455-.9-1.4-2l1.9-38M26.373 41.589l.792-19a5.274 5.274 0 0 1 5.208-5h6M38.3 17.589a5.274 5.274 0 0 1 5.208 5l.792 19"/>
  </g>
</svg>
